<?xml version="1.0" encoding="UTF-8"?>
<svg xmlns="http://www.w3.org/2000/svg" viewBox="-22.03830892626428 -20 436.86042099531306 428.55837748363484">
  <rect x="-22.03830892626428" y="-20" width="436.86042099531306" height="428.55837748363484" fill="#181818"/>
  <path d="M 274.272 0.000 L 273.104 10.725 L 270.220 21.977 L 265.760 33.704 L 259.865 45.850 L 252.675 58.362 L 244.331 71.188 L 224.742 97.560 L 202.222 124.538 L 177.895 151.690 L 128.317 204.798 L 105.313 229.894 L 84.999 253.443 L 68.497 275.017 L 62.027 284.928 L 56.933 294.184 L 53.353 302.731 L 51.429 310.515 L 51.301 317.482 L 53.110 323.579 L 56.997 328.752 L 63.101 332.947 L 71.563 336.110 L 82.524 338.188 L 97.471 339.621 L 111.693 340.162 L 125.230 339.861 L 138.120 338.771 L 150.404 336.942 L 162.118 334.424 L 183.998 327.531 L 204.072 318.500 L 222.652 307.739 L 240.048 295.658 L 256.574 282.666 L 288.258 255.583 L 304.041 242.310 L 320.199 229.761 L 337.044 218.345 L 354.889 208.471 L 374.044 200.548 L 384.211 197.445 L 394.822 194.984 L 381.188 194.184 L 361.829 191.925 L 309.580 183.859 L 245.365 172.457 L 176.477 159.385 L 53.841 134.911 L 0.000 123.786 L 56.900 173.834 L 115.580 223.581 L 183.354 278.418 L 218.057 305.077 L 251.923 329.805 L 283.914 351.534 L 312.993 369.198 L 326.117 376.171 L 338.123 381.727 L 348.883 385.732 L 358.267 388.054 L 366.146 388.558 L 372.389 387.112 L 376.867 383.581 L 379.450 377.832 L 380.643 370.270 L 381.069 361.456 L 379.809 340.459 L 376.053 315.624 L 370.184 287.735 L 362.584 257.576 L 353.637 225.929 L 333.232 161.307 L 312.031 100.136 L 293.095 48.683 L 274.272 0.000" fill="none" stroke="#b9c0d0" stroke-width="1.5" stroke-linecap="round" stroke-linejoin="round"/>
  <polygon points="15.53920662699906,127.02499967975272 14.622158442327102,126.8346730743154 13.73051206954611,126.64953929089813 12.86451086280621,126.4696540256393 12.024398176257513,126.2950729746773 11.210417364050139,126.12585183415048 10.422811780334207,125.96204630019729 9.661824779259831,125.80371206895606 8.927699714977129,125.65090483656523 8.22067994163622,125.50368029916315 7.541008813387222,125.36209415288825 6.888929684380249,125.22620209387884 6.264685908765422,125.0960598182734 5.668520840692857,124.97172302221027 5.1006778343126715,124.85324740182782 4.561400243774981,124.74068865326448 4.050931423229906,124.63410247265864 3.5695147268275615,124.53354455614866 3.117393508718066,124.43907059987292 2.6948111230515375,124.35073629996985 2.3020109239780915,124.26859735257781 1.9392362656478472,124.19270945383519 1.6067305022109213,124.12312829988039 1.304736987817431,124.0599095868518 1.033499076617494,124.00310901088778 0.7932601227612276,123.95278226812675 0.5842634803987491,123.90898505470709 0.406752503680176,123.87177306676718 0.2609705467556257,123.8412020004454 0.14716096377521554,123.81732755188017 0.06556710888906295,123.80020541720987 0.016432336247285302,123.78989129257286 0,123.78644087410754 0.01659609826136588,123.80143871716925 0.06621490134102379,123.84625771832495 0.14860217168231413,123.9206360855306 0.26350367172857736,124.02431202674215 0.4106651639231539,124.15702374991557 0.589832410709384,124.3185094630067 0.8007511745306084,124.50850737397163 1.0431672178301672,124.72675569076621 1.3168263030514011,124.97299262134642 1.6214741926376504,125.24695637366816 1.9568566490322552,125.54838515568737 2.322719434678556,125.87701717536004 2.7188083120198936,126.23259064064207 3.144869043499609,126.61484375948945 3.600647391561041,127.02351473985809 4.085889118647531,127.45834178970395 4.600339987202418,127.91906311698293 5.143745759669047,128.40541692965104 5.715852198490752,128.91714143566415 6.316405066110878,129.45397484297828 6.945150124972763,130.01565535954927 7.60183313751975,130.60192119333317 8.286199866195176,131.21251055228586 14.94242492718315,123.74962451955861 14.260445934109043,123.141165492662 13.60612880480651,122.55701184837378 12.979728074467278,121.99742560849265 12.381498272919206,121.46266879097247 11.811693924746228,120.95300341000227 11.270569549405081,120.46869147608355 10.758379661338958,120.0099949961065 10.275378770088125,119.57717597342355 9.821821380397669,119.17049640792185 9.397961992322394,118.79021829609349 9.004055101329007,118.43660363110428 8.640355198395632,118.10991440286071 8.30711677010877,117.81041259807553 8.004594298757741,117.53836020033151 7.733042262426734,117.29401919014384 7.492715135084472,117.07765154502108 7.283867386671645,116.88951923952452 7.106753483186078,116.72988424532629 6.961627886765789,116.59900853126588 6.848745055769946,116.49715406340582 6.76835944485781,116.42458280508548 6.720725505065705,116.381556716974 0,123.78644087410754 -2.0383089262642793,133.5765167755538 -1.9885144709076907,133.58696938000878 -1.9062559776513557,133.60423098783284 -1.7917767446026942,133.62824591359004 -1.64532006902104,133.6589584719982 -1.4671292473015334,133.69631297793202 -1.2574475749586567,133.74025374642554 -1.0165183466093852,133.79072509267533 -0.7445848559559534,133.84767133204326 -0.441890395768221,133.91103678005956 -0.10867825786562757,133.98076575242595 0.25480826690126657,134.05680256501884 0.6483258886696812,134.1390915338923 1.0716313185839508,134.22757697528166 1.5244812688153226,134.32220320560674 2.0066324525822234,134.4229145414752 2.517841584171,134.52965529968623 3.057865378957165,134.64236979723407 3.626460553427141,134.76100235131167 4.223383825200544,134.88549727931445 4.848391913052982,135.01579889884414 5.50124153693943,135.15185152771286 6.181689418018154,135.29359948394685 6.889492278675236,135.4409870857909 7.624406842549693,135.59395865171237 8.386189834559207,135.7524585004056 9.174597980926514,135.91643095079615 9.989388009206435,136.08582032204555 10.830316648313568,136.26057093355578 11.697140628550699,136.44062710497397 12.589616681637924,136.62593315619733 13.507501540742478,136.81643340737807" fill="#4cc9f0" fill-opacity="0.45" stroke="#90e0ef" stroke-width="0.7"/>
  <polygon points="13.507501540742478,136.81643340737807 13.992257315252509,136.8924301538172 14.482127841971359,136.92054658037452 14.972395399936255,136.90051191049224 15.458338444556489,136.8325190889934 15.935277078668875,136.7172229239177 16.398618122505738,136.5557337803621 16.843899348526946,136.34960688705797 17.266832455110432,136.10082735866828 17.663344365241052,135.81179107804815 18.029616452468783,135.48528162258322 18.36212131636894,135.1244434568179 18.657656753336504,134.73275164954265 18.913376595557384,134.31397840698207 19.126818121160305,133.8721567443868 19.2959257715747,133.4115416458919 19.41907094768344,132.93656908669368 19.495067694122596,132.45181331218365 19.523184120679907,131.9619427854648 19.503149450797626,131.4716752274999 19.43515662929878,130.98573218287967 19.319860464223073,130.50879354876727 19.158371320667463,130.04545250493044 18.952244427363347,129.60017127890922 18.70346489897366,129.17723817232573 18.414428618353522,128.78072626219512 18.087919162888607,128.41445417496737 17.727080997123267,128.08194931106723 17.335389189848023,127.78641387409965 16.916615947287465,127.53069403187878 16.47479428469219,127.31725250627585 16.01417918619728,127.14814485586146 15.53920662699906,127.02499967975272" fill="#f8961e" fill-opacity="0.45" stroke="#ffba08" stroke-width="0.7"/>
  <polygon points="8.286199866195176,131.21251055228586 8.667971011461862,131.52075470718896 9.078117034902323,131.7900944663151 9.512688006102207,132.01793594054783 9.967498769048198,132.20208489193948 10.438169247468274,132.34076786542207 10.920166627360592,132.43264926814913 11.40884901047022,132.47684423198496 11.89951011830685,132.47292713526835 12.387424616179368,132.420935701782 12.867893620752067,132.32137063745182 13.336289952859834,132.17519080827506 13.788102699772994,131.98380400591677 14.218980657752802,131.74905338990627 14.624774236522057,131.4731997370035 15.00157542208788,131.1588996686829 15.345755413052792,130.80918006641622 15.653999567955879,130.42740892114955 15.923339327082026,130.0172628977091 16.15118080131476,129.5826919265092 16.335329752706404,129.1278811635632 16.474012726188995,128.65721068514313 16.56589412891607,128.17521330525082 16.610089092751892,127.68653092214117 16.60617199603529,127.19586981430454 16.55418056254895,126.70795531643203 16.45461549821875,126.22748631185934 16.308435669041998,125.75908997975156 16.11704886668368,125.3072772328384 15.882298250673186,124.8763992748586 15.60644459777043,124.47060569608934 15.29214452944981,124.09380451052351 14.942424927183152,123.74962451955861" fill="#f94144" fill-opacity="0.45" stroke="#f9844a" stroke-width="0.7"/>
  <polygon points="14.94242492718315,123.74962451955861 12.743928817307024,132.347059211558 12.867893620752067,132.32137063745182 13.336289952859834,132.17519080827506 13.788102699772994,131.98380400591677 14.218980657752802,131.74905338990627 14.624774236522057,131.4731997370035 15.00157542208788,131.1588996686829 15.345755413052792,130.80918006641622 15.653999567955879,130.42740892114955 15.923339327082026,130.0172628977091 16.15118080131476,129.5826919265092 16.335329752706404,129.1278811635632 16.474012726188995,128.65721068514313 16.56589412891607,128.17521330525082 16.610089092751892,127.68653092214117 16.60617199603529,127.19586981430454 16.55418056254895,126.70795531643203 16.45461549821875,126.22748631185934 16.308435669041998,125.75908997975156 16.11704886668368,125.3072772328384 15.882298250673186,124.8763992748586 15.60644459777043,124.47060569608934 15.29214452944981,124.09380451052351" fill="#b5179e" fill-opacity="0.18" stroke="#c77dff" stroke-width="0.9"/>
  <polygon points="-2.0383089262642793,133.5765167755538 0,123.78644087410754 6.720725505065705,116.381556716974 14.94242492718315,123.74962451955861 11.697140628550699,136.44062710497397 10.830316648313568,136.26057093355578 9.989388009206435,136.08582032204555 9.174597980926514,135.91643095079615 8.386189834559207,135.7524585004056 7.624406842549693,135.59395865171237 6.889492278675236,135.4409870857909 6.181689418018154,135.29359948394685 5.50124153693943,135.15185152771286 4.848391913052982,135.01579889884414 4.223383825200544,134.88549727931445 3.626460553427141,134.76100235131167 3.057865378957165,134.64236979723407 2.517841584171,134.52965529968623 2.0066324525822234,134.4229145414752 1.5244812688153226,134.32220320560674 1.0716313185839508,134.22757697528166 0.6483258886696812,134.1390915338923 0.25480826690126657,134.05680256501884 -0.10867825786562757,133.98076575242595 -0.441890395768221,133.91103678005956 -0.7445848559559534,133.84767133204326 -1.0165183466093852,133.79072509267533 -1.2574475749586567,133.74025374642554 -1.4671292473015334,133.69631297793202 -1.64532006902104,133.6589584719982 -1.7917767446026942,133.62824591359004 -1.9885144709076907,133.58696938000878" fill="#b5179e" fill-opacity="0.18" stroke="#c77dff" stroke-width="0.9"/>
  <polyline points="15.538154555801587,127.02478137679688 13.579327819625876,126.61814084340453 11.621239514290298,126.21126776974745 9.663025723884175,125.80396199374603 7.705372996660003,125.39633896005127 5.747083777934563,124.98811095825336 3.7896985336650943,124.57954104597519 1.8323318267113642,124.17034102723306 0.09413468737232777,123.87146797954574 1.580287573009853,125.20992717106724 3.068243095210102,126.5461131595493 4.5581137187083955,127.88125751177495 6.048564000025539,129.21459362742544 7.540325253366007,130.54702471123724" fill="none" stroke="#40d9ff" stroke-width="2" stroke-linecap="round" stroke-linejoin="round"/>
  <text x="-14.038308926264278" y="-2" fill="#f4f4f4" font-size="12" font-family="monospace">worst dash face regions (index 25)</text>
</svg>